<svg preserveAspectRatio="none" width="100%" height="100%" overflow="visible" style="display: block;" viewBox="0 0 34 34" fill="none" xmlns="http://www.w3.org/2000/svg">
<g id="original icon &#230;&#136;&#145;&#231;&#154;&#132;">
<path id="Vector" d="M17 7.82C19.89 7.82 22.185 10.115 22.185 12.92C22.185 15.725 19.89 18.02 17 18.02C14.11 18.02 11.815 15.725 11.815 12.92C11.815 10.115 14.11 7.82 17 7.82Z" stroke="var(--stroke-0, #8C857B)" stroke-width="1.53" stroke-linecap="round" stroke-linejoin="round"/>
<path id="Vector_2" d="M9.18 26.775C10.965 22.185 13.6 19.975 17 19.975C20.4 19.975 23.035 22.185 24.82 26.775" stroke="var(--stroke-0, #8C857B)" stroke-width="1.53" stroke-linecap="round" stroke-linejoin="round"/>
<path id="Vector_3" d="M10.03 26.775H23.97" stroke="var(--stroke-0, #8C857B)" stroke-width="1.53" stroke-linecap="round" stroke-linejoin="round"/>
<path id="Vector_4" d="M23.63 9.35C24.1933 9.35 24.65 8.89333 24.65 8.33C24.65 7.76667 24.1933 7.31 23.63 7.31C23.0667 7.31 22.61 7.76667 22.61 8.33C22.61 8.89333 23.0667 9.35 23.63 9.35Z" fill="var(--fill-0, #8C857B)"/>
</g>
</svg>
